<svg xmlns="http://www.w3.org/2000/svg" width="1400" height="620" viewBox="0 0 1400 620"><rect width="1400" height="620" fill="#ffffff"/><defs><marker id="arrowhead" markerWidth="10" markerHeight="9" refX="9" refY="4.5" orient="auto"><path d="M0,0 L10,4.5 L0,9 z" fill="#9aa1ad"/></marker></defs><text x="60" y="56" font-family="Geist" font-size="12" font-weight="700" fill="#6b7280" text-anchor="start" letter-spacing="0.12em">ARSITEKTUR SISTEM</text><text x="60" y="92" font-family="Bricolage Grotesque" font-size="32" font-weight="700" fill="#0e1116" text-anchor="start">Alur Autentikasi &amp; Sesi</text><rect x="45.0" y="170" width="205" height="64" rx="12" fill="#ecf1fa" stroke="#3a6dc5" stroke-width="1.2"/><text x="147.5" y="207.0" font-family="Geist" font-size="13.5" font-weight="600" fill="#3a6dc5" text-anchor="middle">Kata sandi</text><rect x="266.0" y="170" width="205" height="64" rx="12" fill="#ecf1fa" stroke="#3a6dc5" stroke-width="1.2"/><text x="368.5" y="207.0" font-family="Geist" font-size="13.5" font-weight="600" fill="#3a6dc5" text-anchor="middle">Magic link</text><rect x="487.0" y="170" width="205" height="64" rx="12" fill="#ecf1fa" stroke="#3a6dc5" stroke-width="1.2"/><text x="589.5" y="207.0" font-family="Geist" font-size="13.5" font-weight="600" fill="#3a6dc5" text-anchor="middle">OTP telepon</text><rect x="708.0" y="170" width="205" height="64" rx="12" fill="#ecf1fa" stroke="#3a6dc5" stroke-width="1.2"/><text x="810.5" y="207.0" font-family="Geist" font-size="13.5" font-weight="600" fill="#3a6dc5" text-anchor="middle">Passphrase instansi</text><rect x="929.0" y="170" width="205" height="64" rx="12" fill="#ecf1fa" stroke="#3a6dc5" stroke-width="1.2"/><text x="1031.5" y="207.0" font-family="Geist" font-size="13.5" font-weight="600" fill="#3a6dc5" text-anchor="middle">OAuth2</text><rect x="1150.0" y="170" width="205" height="64" rx="12" fill="#ecf1fa" stroke="#3a6dc5" stroke-width="1.2"/><text x="1252.5" y="207.0" font-family="Geist" font-size="13.5" font-weight="600" fill="#3a6dc5" text-anchor="middle">OIDC / SAML</text><text x="700" y="150" font-family="Geist" font-size="14" font-weight="500" fill="#6b7280" text-anchor="middle">Pengguna memilih metode masuk</text><rect x="560" y="300" width="280" height="90" rx="14" fill="#ffffff" stroke="#d8d8d2" stroke-width="1.5"/><rect x="560" y="300" width="280" height="6" rx="3" fill="#3a6dc5"/><g transform="translate(580 324)" stroke="#3a6dc5"><g stroke-width="2.25" stroke-linecap="round" stroke-linejoin="round" fill="none"><path d="M14.0 0 L28 5.6000000000000005 V14.0 C28 22.959999999999997 20.16 28 14.0 28 C7.840000000000001 28 0 22.959999999999997 0 14.0 V5.6000000000000005 Z"/></g></g><text x="618" y="344" font-family="Bricolage Grotesque" font-size="19" font-weight="700" fill="#0e1116" text-anchor="start">AuthService.issueSession()</text><text x="618" y="366" font-family="Geist" font-size="13.5" font-weight="400" fill="#6b7280" text-anchor="start">Backend menerbitkan sesi</text><text x="618" y="385" font-family="Geist" font-size="13.5" font-weight="400" fill="#6b7280" text-anchor="start">satu jalur untuk semua metode</text><line x1="147.5" y1="234" x2="700" y2="300" stroke="#d8d8d2" stroke-width="1.5" marker-end="url(#arrowhead)"/><line x1="368.5" y1="234" x2="700" y2="300" stroke="#d8d8d2" stroke-width="1.5" marker-end="url(#arrowhead)"/><line x1="589.5" y1="234" x2="700" y2="300" stroke="#d8d8d2" stroke-width="1.5" marker-end="url(#arrowhead)"/><line x1="810.5" y1="234" x2="700" y2="300" stroke="#d8d8d2" stroke-width="1.5" marker-end="url(#arrowhead)"/><line x1="1031.5" y1="234" x2="700" y2="300" stroke="#d8d8d2" stroke-width="1.5" marker-end="url(#arrowhead)"/><line x1="1252.5" y1="234" x2="700" y2="300" stroke="#d8d8d2" stroke-width="1.5" marker-end="url(#arrowhead)"/><rect x="140" y="430" width="300" height="100" rx="14" fill="#ffffff" stroke="#d8d8d2" stroke-width="1.5"/><rect x="140" y="430" width="300" height="6" rx="3" fill="#0f8657"/><g transform="translate(160 454)" stroke="#0f8657"><g stroke-width="2.25" stroke-linecap="round" stroke-linejoin="round" fill="none"><ellipse cx="14.0" cy="5.04" rx="14.0" ry="4.48"/><path d="M0 5.04 L0 22.959999999999997 A14.0 4.48 0 0 0 28 22.959999999999997 L28 5.04"/></g></g><text x="198" y="474" font-family="Bricolage Grotesque" font-size="19" font-weight="700" fill="#0e1116" text-anchor="start">Baris Session di PostgreSQL</text><text x="198" y="496" font-family="Geist" font-size="13.5" font-weight="400" fill="#6b7280" text-anchor="start">UUID buram (opaque)</text><text x="198" y="515" font-family="Geist" font-size="13.5" font-weight="400" fill="#6b7280" text-anchor="start">Bukan JWT yang bisa dibaca</text><rect x="198" y="532" width="128" height="21" rx="6" fill="#e2f1ea"/><text x="206" y="547" font-family="Geist Mono" font-size="12" font-weight="500" fill="#0f8657" text-anchor="start">tabel: Session</text><rect x="560" y="430" width="280" height="100" rx="14" fill="#ffffff" stroke="#d8d8d2" stroke-width="1.5"/><rect x="560" y="430" width="280" height="6" rx="3" fill="#3a6dc5"/><g transform="translate(580 454)" stroke="#3b4150"><g stroke-width="2.25" stroke-linecap="round" stroke-linejoin="round" fill="none"><rect x="0" y="0" width="28" height="21.84" rx="4"/><line x1="0" y1="7.28" x2="28" y2="7.28"/><circle cx="4.48" cy="3.64" r="1.4" fill="#3b4150"/></g></g><text x="618" y="474" font-family="Bricolage Grotesque" font-size="19" font-weight="700" fill="#0e1116" text-anchor="start">localStorage Browser</text><text x="618" y="496" font-family="Geist" font-size="13.5" font-weight="400" fill="#6b7280" text-anchor="start">Disimpan di client</text><text x="618" y="515" font-family="Geist" font-size="13.5" font-weight="400" fill="#6b7280" text-anchor="start">Tanpa cookie, tanpa NextAuth</text><rect x="618" y="532" width="120" height="21" rx="6" fill="#ecf1fa"/><text x="626" y="547" font-family="Geist Mono" font-size="12" font-weight="500" fill="#3a6dc5" text-anchor="start">atlas_session</text><rect x="960" y="430" width="300" height="100" rx="14" fill="#ffffff" stroke="#d8d8d2" stroke-width="1.5"/><rect x="960" y="430" width="300" height="6" rx="3" fill="#f94141"/><g transform="translate(980 454)" stroke="#3a6dc5"><g stroke-width="2.25" stroke-linecap="round" stroke-linejoin="round" fill="none"><path d="M14.0 0 L28 5.6000000000000005 V14.0 C28 22.959999999999997 20.16 28 14.0 28 C7.840000000000001 28 0 22.959999999999997 0 14.0 V5.6000000000000005 Z"/></g></g><text x="1018" y="474" font-family="Bricolage Grotesque" font-size="19" font-weight="700" fill="#0e1116" text-anchor="start">Setiap Permintaan API</text><text x="1018" y="496" font-family="Geist" font-size="13.5" font-weight="400" fill="#6b7280" text-anchor="start">Header disertakan otomatis</text><text x="1018" y="515" font-family="Geist" font-size="13.5" font-weight="400" fill="#6b7280" text-anchor="start">Divalidasi ulang tiap request</text><rect x="1018" y="532" width="224" height="21" rx="6" fill="#fee5e5"/><text x="1026" y="547" font-family="Geist Mono" font-size="12" font-weight="500" fill="#f94141" text-anchor="start">Authorization: Bearer &lt;id&gt;</text><line x1="700" y1="390" x2="290" y2="430" stroke="#6b7280" stroke-width="2" marker-end="url(#arrowhead)"/><rect x="434.0" y="398.0" width="122" height="19" rx="5" fill="#ffffff" stroke="#ececea" stroke-width="1"/><text x="495.0" y="412.0" font-family="Geist Mono" font-size="12.5" font-weight="500" fill="#3b4150" text-anchor="middle">simpan baris</text><line x1="700" y1="390" x2="700" y2="430" stroke="#6b7280" stroke-width="2" marker-end="url(#arrowhead)"/><rect x="625.5" y="398.0" width="149" height="19" rx="5" fill="#ffffff" stroke="#ececea" stroke-width="1"/><text x="700.0" y="412.0" font-family="Geist Mono" font-size="12.5" font-weight="500" fill="#3b4150" text-anchor="middle">kirim ke client</text><line x1="840" y1="480" x2="960" y2="480" stroke="#6b7280" stroke-width="2" marker-end="url(#arrowhead)"/><rect x="830.0" y="468.0" width="140" height="19" rx="5" fill="#ffffff" stroke="#ececea" stroke-width="1"/><text x="900.0" y="482.0" font-family="Geist Mono" font-size="12.5" font-weight="500" fill="#3b4150" text-anchor="middle">tiap panggilan</text><text x="700" y="600" font-family="Geist" font-size="13" font-weight="400" fill="#6b7280" text-anchor="middle">Metode masuk berbeda-beda, tetapi semuanya bermuara pada satu penerbit sesi — konsisten dan mudah diaudit.</text></svg>