<svg xmlns="http://www.w3.org/2000/svg" width="1400" height="760" viewBox="0 0 1400 760"><rect width="1400" height="760" fill="#ffffff"/><defs><marker id="arrowhead" markerWidth="10" markerHeight="9" refX="9" refY="4.5" orient="auto"><path d="M0,0 L10,4.5 L0,9 z" fill="#9aa1ad"/></marker></defs><text x="60" y="56" font-family="Geist" font-size="12" font-weight="700" fill="#6b7280" text-anchor="start" letter-spacing="0.12em">FITUR APLIKASI</text><text x="60" y="92" font-family="Bricolage Grotesque" font-size="32" font-weight="700" fill="#0e1116" text-anchor="start">Peta Modul Atlas</text><text x="60" y="118" font-family="Geist" font-size="14" font-weight="400" fill="#6b7280" text-anchor="start">Satu ruang kerja, tujuh modul — semuanya berjalan di satu instance yang Anda kendalikan penuh.</text><rect x="60" y="190" width="300" height="200" rx="16" fill="#ffffff" stroke="#d8d8d2" stroke-width="1.5"/><circle cx="94" cy="224" r="22" fill="#ecf1fa"/><g transform="translate(80 210)" stroke="#3a6dc5"><g stroke-width="2.25" stroke-linecap="round" stroke-linejoin="round" fill="none"><rect x="0" y="0" width="11.76" height="11.76" rx="3"/><rect x="16.240000000000002" y="0" width="11.76" height="11.76" rx="3"/><rect x="0" y="16.240000000000002" width="11.76" height="11.76" rx="3"/><rect x="16.240000000000002" y="16.240000000000002" width="11.76" height="11.76" rx="3"/></g></g><text x="84" y="282" font-family="Bricolage Grotesque" font-size="19" font-weight="700" fill="#0e1116" text-anchor="start">Dashboard</text><text x="84" y="308" font-family="Geist" font-size="13.5" font-weight="400" fill="#6b7280" text-anchor="start">Ringkasan lintas proyek &amp;</text><text x="84" y="328" font-family="Geist" font-size="13.5" font-weight="400" fill="#6b7280" text-anchor="start">tugas untuk Anda</text><rect x="386" y="190" width="300" height="200" rx="16" fill="#ffffff" stroke="#d8d8d2" stroke-width="1.5"/><circle cx="420" cy="224" r="22" fill="#e2f1ea"/><g transform="translate(406 210)" stroke="#0f8657"><g stroke-width="2.25" stroke-linecap="round" stroke-linejoin="round" fill="none"><rect x="0" y="0" width="28" height="11.76" rx="4"/><rect x="0" y="14.0" width="28" height="11.76" rx="4"/><circle cx="5.04" cy="5.88" r="1.6" fill="#0f8657"/><circle cx="5.04" cy="19.88" r="1.6" fill="#0f8657"/></g></g><text x="410" y="282" font-family="Bricolage Grotesque" font-size="19" font-weight="700" fill="#0e1116" text-anchor="start">PMO</text><text x="410" y="308" font-family="Geist" font-size="13.5" font-weight="400" fill="#6b7280" text-anchor="start">Kanban, list, timeline,</text><text x="410" y="328" font-family="Geist" font-size="13.5" font-weight="400" fill="#6b7280" text-anchor="start">catatan, whiteboard, berkas</text><rect x="712" y="190" width="300" height="200" rx="16" fill="#ffffff" stroke="#d8d8d2" stroke-width="1.5"/><circle cx="746" cy="224" r="22" fill="#fef6e0"/><g transform="translate(732 210)" stroke="#f7bf33"><g stroke-width="2.25" stroke-linecap="round" stroke-linejoin="round" fill="none"><path d="M0 2.8000000000000003 h28 v16.8 h-16.8 l-6.16 6.16 v-6.16 h-5.04 z"/></g></g><text x="736" y="282" font-family="Bricolage Grotesque" font-size="19" font-weight="700" fill="#0e1116" text-anchor="start">Chat</text><text x="736" y="308" font-family="Geist" font-size="13.5" font-weight="400" fill="#6b7280" text-anchor="start">Kanal per proyek + kanal</text><text x="736" y="328" font-family="Geist" font-size="13.5" font-weight="400" fill="#6b7280" text-anchor="start">lintas workspace</text><rect x="1038" y="190" width="300" height="200" rx="16" fill="#ffffff" stroke="#d8d8d2" stroke-width="1.5"/><circle cx="1072" cy="224" r="22" fill="#fee5e5"/><g transform="translate(1058 210)" stroke="#f94141"><g stroke-width="2.25" stroke-linecap="round" stroke-linejoin="round" fill="none"><rect x="8.96" y="0" width="10.08" height="16.24" rx="5.04"/><path d="M3.9200000000000004 11.76 A10.08 10.08 0 0 0 24.08 11.76"/><line x1="14.0" y1="21.84" x2="14.0" y2="28"/></g></g><text x="1062" y="282" font-family="Bricolage Grotesque" font-size="19" font-weight="700" fill="#0e1116" text-anchor="start">Voice</text><text x="1062" y="308" font-family="Geist" font-size="13.5" font-weight="400" fill="#6b7280" text-anchor="start">Panggilan suara WebRTC,</text><text x="1062" y="328" font-family="Geist" font-size="13.5" font-weight="400" fill="#6b7280" text-anchor="start">screen-share, moderasi</text><rect x="60" y="416" width="300" height="200" rx="16" fill="#ffffff" stroke="#d8d8d2" stroke-width="1.5"/><circle cx="94" cy="450" r="22" fill="#e2f1ea"/><g transform="translate(80 436)" stroke="#0f8657"><g stroke-width="2.25" stroke-linecap="round" stroke-linejoin="round" fill="none"><rect x="0" y="0" width="11.76" height="11.76" rx="3"/><rect x="16.240000000000002" y="0" width="11.76" height="11.76" rx="3"/><rect x="0" y="16.240000000000002" width="11.76" height="11.76" rx="3"/><rect x="16.240000000000002" y="16.240000000000002" width="11.76" height="11.76" rx="3"/></g></g><text x="84" y="508" font-family="Bricolage Grotesque" font-size="19" font-weight="700" fill="#0e1116" text-anchor="start">Dokumen Real-time</text><text x="84" y="534" font-family="Geist" font-size="13.5" font-weight="400" fill="#6b7280" text-anchor="start">Catatan &amp; whiteboard</text><text x="84" y="554" font-family="Geist" font-size="13.5" font-weight="400" fill="#6b7280" text-anchor="start">kolaboratif berbasis Yjs</text><rect x="386" y="416" width="300" height="200" rx="16" fill="#ffffff" stroke="#d8d8d2" stroke-width="1.5"/><circle cx="420" cy="450" r="22" fill="#ecf1fa"/><g transform="translate(406 436)" stroke="#3a6dc5"><g stroke-width="2.25" stroke-linecap="round" stroke-linejoin="round" fill="none"><path d="M14.0 0 L28 5.6000000000000005 V14.0 C28 22.959999999999997 20.16 28 14.0 28 C7.840000000000001 28 0 22.959999999999997 0 14.0 V5.6000000000000005 Z"/></g></g><text x="410" y="508" font-family="Bricolage Grotesque" font-size="19" font-weight="700" fill="#0e1116" text-anchor="start">Godmode</text><text x="410" y="534" font-family="Geist" font-size="13.5" font-weight="400" fill="#6b7280" text-anchor="start">Panel kendali self-host:</text><text x="410" y="554" font-family="Geist" font-size="13.5" font-weight="400" fill="#6b7280" text-anchor="start">auth, tema, storage, modul</text><rect x="712" y="416" width="300" height="200" rx="16" fill="#ffffff" stroke="#d8d8d2" stroke-width="1.5"/><circle cx="746" cy="450" r="22" fill="#f7f7f5"/><g transform="translate(732 436)" stroke="#3b4150"><g stroke-width="2.25" stroke-linecap="round" stroke-linejoin="round" fill="none"><ellipse cx="14.0" cy="5.04" rx="14.0" ry="4.48"/><path d="M0 5.04 L0 22.959999999999997 A14.0 4.48 0 0 0 28 22.959999999999997 L28 5.04"/></g></g><text x="736" y="508" font-family="Bricolage Grotesque" font-size="19" font-weight="700" fill="#0e1116" text-anchor="start">Admin Console</text><text x="736" y="534" font-family="Geist" font-size="13.5" font-weight="400" fill="#6b7280" text-anchor="start">Tag, role kolaborasi,</text><text x="736" y="554" font-family="Geist" font-size="13.5" font-weight="400" fill="#6b7280" text-anchor="start">sticker, feature flag</text></svg>